<?xml version="1.0" encoding="UTF-8"?>
<svg id="Layer_1" xmlns="http://www.w3.org/2000/svg" version="1.1" viewBox="0 0 709.4 80.17">
  <!-- Generator: Adobe Illustrator 29.8.1, SVG Export Plug-In . SVG Version: 2.1.1 Build 2)  -->
  <defs>
    <style>
      .st0 {
        fill: #231f20;
      }
    </style>
  </defs>
  <path class="st0" d="M455.4,2.29l2.83,3.45,24.23,50.18c.08,5.46-.25,12.34-2.17,17.49-.53,1.41-1.68,2.91-2.07,4.44h25.1c-.74-2.1-1.86-3.85-2.5-6.06-1.91-6.65-2.01-14.01-1.74-20.89,8.01-16.28,13.42-34.41,25-48.6h-13.69c1.85,8.25-.23,16.58-2.86,24.41-2.29,6.82-5.54,14.81-8.54,21.36-.13.28-.41,1.13-.8,1.02l-18.65-39.1c-.86-2.55-1.11-5.03-.64-7.7h-23.51ZM106.92,37.55c.35-3.96,2.33-12.49,4.05-16.03.13-.26.28-.57.62-.52l6.69,17.98c.19.24-.15.74-.29.74h-10.73c-.49-.15-.38-1.7-.34-2.17M111.03,2.29v17c0,.31-2.54,4.65-2.93,5.51-5.58,12.23-8.64,24.75-13.16,37.28-1.95,5.39-4.36,10.55-6.72,15.76h19.17c.24-.92-.28-1.69-.4-2.45-1.47-9.38-1.29-19.01-.74-28.48.12-1.99.03-3.9.5-5.89l.17-.28c3.42.08,7.49-.45,10.87-.11,1.36.13,1.42,1.21,1.93,2.4,1.17,2.72,2.28,5.77,3.3,8.57,3.07,8.36,6.34,17.22,6.05,26.25h24.65c-.81-2.13-2.23-3.97-3.28-5.96-9.65-18.35-17.27-40.42-24.79-59.88-1.23-3.2-2.42-6.43-3.42-9.71h-11.18ZM393.36,39.46c.65-5.37,1.69-10.85,3.46-15.99.17-.49.64-2.23,1.19-2.23l6.72,18.12-.32.38h-10.5c-.12-.02-.35-.23-.54-.26M434.21,66.28c-2.17-4.47-4.15-9.41-6.08-14.01-6.8-16.26-12.77-32.88-19.17-49.3l-.46-.68h-10.73l-.34.34v17.12c0,.31-2.55,4.65-2.93,5.51-6.7,14.78-9.92,30.7-16.42,45.43-1.05,2.38-2.42,4.72-3.24,7.15h19.17c-.03-1.25-.52-2.62-.66-3.79-1.04-8.77-1.35-18.34-.71-27.14.14-1.93.71-3.87.48-5.9l.18-.27h12.11c4.24,12.06,10.41,23.98,10.27,37.11h24.65c-1.84-3.95-4.23-7.65-6.13-11.56M553.3,2.29c.69,1.78,1.83,3.37,2.45,5.2,2.02,5.96,2.11,12.65,2.33,18.89.44,12.17,1.66,37.7-3.22,48.35-.49,1.07-1.39,1.99-1.57,3.12h54.32l.22-18.95c-6.93,7.33-15.55,12.99-25.28,15.91-1.48.44-5.71,1.68-7.01,1.43-.25-.05-.43-.12-.57-.34V24.77c1.54-.85,4.27.08,5.9.72,4.91,1.9,9.12,6.37,12.7,10.12,1.68,1.76,3.2,4.12,5.13,5.6.23.18.29.44.69.34v-15.18c-.2-.33-.45-.31-.79-.35-1.51-.18-3.58.27-5.27.25-9.77-.1-19.52-1.99-18.6-14.06.75-9.77,11.54-10.36,18.42-6.31,5.91,3.48,7.66,8.14,11.12,13.53.19.29.02.55.59.43l-1.14-17.57h-50.43ZM230.89,3.72c-16.08-4.59-46.88-4.18-44.79,19.69,1.58,18.02,27.21,22.88,38.89,33.02,10.58,9.2,5.03,23.22-8.99,19.71-10.97-2.75-22.62-16.21-28.84-25.25-1.24-1.8-2.06-4.03-3.78-5.46l2.05,28.65c.42.48,6.03,2.1,7.03,2.33,2.48.57,5.65,1.09,8.18,1.41,13.23,1.66,33.41,2.13,38.96-13.03,6.01-16.44-5.94-26.62-18.86-33.77-6.17-3.42-21.6-9.47-24.35-15.82-2.18-5.04.53-9.88,5.66-11.24,12.91-3.42,25.33,10.44,32.32,19.59,1.1,1.43,1.97,3.13,3.33,4.31l-2.1-22.32c-.18-.31-4.04-1.62-4.7-1.81M28.88,26.83c-1.69,4.41-4.68,7.4-1.79,12.28,3.88,6.55,15.35,9.65,16.13,17.65.47,4.74-1.02,8.33-4.07,11.85-8,9.22-20.41,10.16-31.85,10.37-.85.02-3.87.62-4.44,0-.38-.41.15-.38.32-.47,5.93-3.06,10.41-5.91,13.83-11.96,6.07-10.73.05-15.22-3.54-24.55-3.09-8.01-.74-10.73.51-18.2,1.41-8.4-.92-16.96-8.55-21.48-.38-.22-2.5-.79-1.9-1.41l6.94.47c5.53,1.14,11.01,2.45,15.28,6.29,5.93,5.33,5.82,12.06,3.11,19.15M41.47,33.04c1.95-3.18,4.38-6.39,5.17-10.12C50.67,4.08,30.87.77,16.9.22c-4.51-.18-11.15-.39-15.54,0-.51.04-.99.05-1.36.46l.21,79c.27.24.6.19.92.22,6.97.63,16.2-.02,23.29-.24,11.25-.35,26.03-.33,32.15-11.67,5.47-10.14,2.56-24.72-7.92-30.37-1.45-.78-6.04-2.1-6.69-2.78-.46-.48-.68-1.15-.49-1.81M708.8,75.58c-2.15-4.48-5.25-8.95-7.55-13.45-4.37-8.52-8.02-17.45-12.34-26.01-.79-3.85,2.19-4.38,4.29-6.79,4.11-4.7,5.08-11.9,1.78-17.31-7.94-12.97-36.95-9.79-50.06-10.44l-.79.36v75.55l.34.34h20.88c-.66-1.64-1.64-3.06-2.22-4.74-3.2-9.27-1.35-24.23-1.65-34.41-.28-9.28-1.61-27.73-9.03-34.11-.72-.62-1.55-1.03-2.32-1.55-.2-.14-.42.04-.3-.51,7.07-.29,13.71.02,20.24,2.93,9.57,4.25,11.56,13.12,7.84,22.53-1.71,4.33-6.29,6.58-7.03,11-.62,3.74,4.27,9.87,6.15,13.15,4.3,7.51,7.22,16.25,8.17,24.88.05.15.52.38.58.38h23.62c0-.62-.33-1.25-.6-1.8M303.64,2.29c-.81,1.74-1.8,3.38-2.44,5.2-1.87,5.24-2.22,11.51-2.36,17.04-.06,2.22-.25,5.68,0,7.78.04.33.03.59.35.79h24.3c-.13-6.57.41-13.23-.7-19.73-.29-1.67-.9-4.24-1.47-5.83-.65-1.78-1.82-3.43-2.39-5.26h26.47c-.79,1.41-1.57,2.83-2.16,4.34-4.44,11.3-2.92,32.37-2.62,44.83.17,7.05-.17,13.5,2.04,20.33.68,2.11,1.74,4.08,2.75,6.04h-26.47c.68-1.84,1.81-3.51,2.45-5.43,2.47-7.48,2.11-15.25,2.11-22.98,0-4.38.51-10.49.02-14.63-.04-.33-.03-.59-.35-.79h-23.73c-.33.2-.32.45-.35.79-.34,2.93.08,6.97.02,10.06-.16,9.1-.97,18.84,2.06,27.59.66,1.9,1.71,3.55,2.5,5.38h-26.47c.24-1.07,1.03-1.99,1.48-2.97,2.52-5.62,3-11.62,3.32-17.68.57-10.74.44-21.88-.01-32.63-.26-6.16-.45-12.58-2.85-18.38-.55-1.34-1.43-2.53-1.94-3.88h26.47Z"/>
</svg>