<?xml version="1.0" encoding="UTF-8"?>
<svg id="Layer_1" xmlns="http://www.w3.org/2000/svg" version="1.1" viewBox="0 0 192.06 36.24">
  <!-- Generator: Adobe Illustrator 29.8.1, SVG Export Plug-In . SVG Version: 2.1.1 Build 2)  -->
  <path d="M191.55.62h-7.5c-.29,0-.52.23-.52.51v7.5c0,6.36.11,12.57.05,12.57h-.05c-.05,0-5.49-7.56-7.77-10.57l-7.4-9.78h0c-.11-.14-.27-.23-.43-.23h-7.26c-.29,0-.52.23-.52.51v34.03c0,.27.23.5.52.5h7.5c.28,0,.52-.23.52-.5v-7.26c0-7.65-.11-13.07-.05-13.07h.05s4.82,6.66,8.07,11.07l7.1,9.54c.11.13.25.22.43.22h7.26c.28,0,.51-.23.51-.5V1.13c0-.28-.23-.51-.51-.51"/>
  <path d="M93.39.62h-10.37c-.28,0-.52.23-.52.51v6.84c0,.28.23.51.52.51h10.69c5.09,0,9.51,3.81,9.51,9.82s-4.43,9.51-9.51,9.51h-10.69c-.28,0-.52.23-.52.51v6.85c0,.27.23.5.52.5h10.37c10.15,0,18.39-6.86,18.39-17.36S103.54.62,93.39.62"/>
  <path d="M71.18,3.56c-.14-.1-.3-.13-.48-.1-.14.04-.3.14-.37.29l-3.43,6.23c-.12.22-.09.5.11.67,1.8,1.79,2.83,4.37,2.83,7.47,0,6.03-3.88,10.11-9.8,10.11s-9.8-4.08-9.8-10.11c0-3.1,1.03-5.69,2.84-7.47.16-.17.21-.45.09-.67l-3.43-6.23c-.07-.15-.21-.25-.39-.29-.16-.03-.32,0-.46.1-4.39,3.22-7.22,8.39-7.22,14.57,0,10.5,8.16,18.12,18.37,18.12s18.37-7.62,18.37-18.12c0-6.18-2.83-11.34-7.22-14.57"/>
  <path d="M60.03,8.44c2.36,0,4.28-1.89,4.28-4.22s-1.92-4.22-4.28-4.22-4.29,1.89-4.29,4.22,1.92,4.22,4.29,4.22"/>
  <path d="M135.64,0C125.43,0,117.27,7.62,117.27,18.12s8.16,18.12,18.37,18.12,18.35-7.61,18.35-18.12S145.83,0,135.64,0M135.64,28.24c-5.92,0-9.82-4.08-9.82-10.11s3.9-10.11,9.82-10.11,9.8,4.08,9.8,10.11-3.89,10.11-9.8,10.11"/>
  <path d="M35.51,1.13c0-.28-.23-.51-.52-.51h-7.52l-9.69,15.67h-.05L8.02.62H.51c-.28,0-.51.23-.51.51v34.02c0,.29.23.51.51.51h7.36c.27,0,.5-.22.5-.51v-8.05c0-8.31-.3-12.41-.25-12.41h.05l9.5,15.52s.04.05.07.05.07-.02.09-.05l9.49-15.52h.05c.05,0-.27,4.1-.27,12.41v8.05c0,.29.23.51.52.51h7.36c.28,0,.52-.22.52-.51"/>
</svg>